<svg width="512" height="512" viewBox="0 0 512 512" fill="none" xmlns="http://www.w3.org/2000/svg">
<path d="M368 48H144C126.327 48 112 62.3269 112 80V432C112 449.673 126.327 464 144 464H368C385.673 464 400 449.673 400 432V80C400 62.3269 385.673 48 368 48Z" stroke="white" stroke-width="32" stroke-linecap="round" stroke-linejoin="round"/>
<path d="M160.01 112H352V176H160.01V112Z" stroke="white" stroke-width="32" stroke-linecap="round" stroke-linejoin="round"/>
<path d="M168 272C181.255 272 192 261.255 192 248C192 234.745 181.255 224 168 224C154.745 224 144 234.745 144 248C144 261.255 154.745 272 168 272Z" fill="white"/>
<path d="M256 272C269.255 272 280 261.255 280 248C280 234.745 269.255 224 256 224C242.745 224 232 234.745 232 248C232 261.255 242.745 272 256 272Z" fill="white"/>
<path d="M344 272C357.255 272 368 261.255 368 248C368 234.745 357.255 224 344 224C330.745 224 320 234.745 320 248C320 261.255 330.745 272 344 272Z" fill="white"/>
<path d="M168 352C181.255 352 192 341.255 192 328C192 314.745 181.255 304 168 304C154.745 304 144 314.745 144 328C144 341.255 154.745 352 168 352Z" fill="white"/>
<path d="M256 352C269.255 352 280 341.255 280 328C280 314.745 269.255 304 256 304C242.745 304 232 314.745 232 328C232 341.255 242.745 352 256 352Z" fill="white"/>
<path d="M168 432C181.255 432 192 421.255 192 408C192 394.745 181.255 384 168 384C154.745 384 144 394.745 144 408C144 421.255 154.745 432 168 432Z" fill="white"/>
<path d="M256 432C269.255 432 280 421.255 280 408C280 394.745 269.255 384 256 384C242.745 384 232 394.745 232 408C232 421.255 242.745 432 256 432Z" fill="white"/>
<path d="M368 328C368 314.745 357.255 304 344 304C330.745 304 320 314.745 320 328V408C320 421.255 330.745 432 344 432C357.255 432 368 421.255 368 408V328Z" fill="white"/>
</svg>
